<svg width="19" height="18" viewBox="0 0 19 18" fill="none" xmlns="http://www.w3.org/2000/svg">
<g id="hide" clip-path="url(#clip0_187_510)">
<path id="Vector" d="M5.25421 4.30533C5.25421 4.05285 5.0728 3.89053 4.94316 3.70386C4.56758 3.1633 4.17698 2.63262 3.81351 2.08411C3.51708 1.65769 3.30868 1.17696 3.20039 0.669815C3.18353 0.577379 3.18901 0.482286 3.21644 0.392391C3.24387 0.302495 3.29248 0.220396 3.35815 0.152889C3.4216 0.0844584 3.50428 0.0366287 3.59545 0.0156576C3.68663 -0.00531339 3.78203 0.00153642 3.86924 0.0353153C4.13998 0.154244 4.32793 0.364066 4.50894 0.579021C5.23652 1.44302 5.96046 2.31012 6.68072 3.18033C7.37277 4.01275 8.07482 4.83731 8.74946 5.68331C9.4827 6.60268 10.189 7.54316 10.908 8.47381C11.1094 8.73449 11.3022 9.00288 11.519 9.25038C12.4817 10.3493 13.3452 11.5245 14.2256 12.6878C14.5659 13.1373 14.9487 13.5548 15.294 14.0008C16.1001 15.042 16.8992 16.0886 17.6913 17.1405C17.8771 17.3876 17.8025 17.7506 17.5756 17.8891C17.4709 17.9437 17.3518 17.9651 17.2345 17.9503C17.1172 17.9355 17.0072 17.8852 16.9196 17.8062C16.7867 17.6738 16.6592 17.5356 16.5352 17.3949C15.4771 16.1942 14.4193 14.9933 13.3617 13.7922C13.302 13.719 13.2237 13.6629 13.1349 13.6297C13.0462 13.5964 12.9501 13.5873 12.8566 13.6031C12.5312 13.657 12.2082 13.7247 11.8838 13.7845C10.1184 14.1102 8.40606 13.8683 6.72966 13.2907C5.25091 12.7811 3.84508 12.1205 2.57375 11.2034C2.18849 10.9325 1.82494 10.6323 1.48634 10.3055C1.22349 10.037 0.994996 9.73718 0.806013 9.41294C0.390366 8.72107 0.439459 8.399 1.01027 7.78127C2.06821 6.64025 3.27301 5.64324 4.59338 4.8161C4.82834 4.66792 5.11884 4.58626 5.25421 4.30533ZM7.84326 7.23836C7.46566 6.63978 6.98265 6.13138 6.47185 5.65068C6.38664 5.57033 6.2061 5.55819 6.07388 5.56872C5.93417 5.58878 5.79976 5.63572 5.67811 5.70693C4.29288 6.42564 3.04781 7.34299 1.88301 8.37264C1.83752 8.40936 1.79998 8.45484 1.77262 8.50643C1.74527 8.55794 1.72866 8.61443 1.72383 8.67253C1.719 8.73063 1.72603 8.78913 1.7445 8.84441C1.76298 8.8997 1.7925 8.95073 1.83131 8.99444C2.14378 9.34536 2.5044 9.6508 2.90251 9.90175C4.28321 10.8201 5.78739 11.4768 7.37414 11.9441C8.65431 12.3209 9.96474 12.3883 11.2876 12.2189C11.3873 12.2099 11.4828 12.1748 11.5644 12.1172C11.6461 12.0596 11.7109 11.9816 11.7524 11.891C11.6225 11.7193 11.4807 11.535 11.3421 11.3483C10.99 10.8738 10.5955 10.4966 9.92654 10.686C9.83325 10.6987 9.73875 10.6993 9.64537 10.6876C8.6443 10.6884 7.43223 9.86302 7.60557 8.34315C7.64717 7.97725 7.7591 7.61959 7.84326 7.23805V7.23836Z" fill="#1C1C1B"/>
<path id="Vector_2" d="M15.4153 12.4828C15.0738 12.2986 14.8516 12.0065 14.6515 11.6717C14.5888 11.5691 14.5647 11.4476 14.5832 11.3289C14.6019 11.2102 14.6621 11.1019 14.7533 11.0231C14.7934 10.9886 14.8361 10.9572 14.8812 10.9293C15.4037 10.6091 15.8872 10.2298 16.322 9.7989C18.0164 8.12972 17.9244 8.53866 16.322 6.96938C15.3285 5.99706 14.0719 5.4381 12.7429 5.05817C11.9254 4.82449 11.0897 4.6796 10.2319 4.71263C9.99641 4.72179 9.7604 4.71648 9.52479 4.72218C9.16843 4.73094 8.88831 4.57129 8.65731 4.32154C8.53107 4.18493 8.42953 4.02558 8.31637 3.87692C8.24626 3.78475 8.3318 3.5755 8.44763 3.53725C9.3668 3.23358 10.3091 3.26636 11.248 3.38007C13.8245 3.69217 15.9903 4.85864 17.8618 6.60351C18.168 6.88894 18.4197 7.23632 18.6734 7.57237C18.8662 7.84317 18.968 8.16773 18.9642 8.49952C18.968 8.68185 18.9623 8.8956 18.8738 9.04354C18.0462 10.4279 17.0911 11.6964 15.5841 12.4296C15.5291 12.451 15.4727 12.4688 15.4153 12.4828Z" fill="#1C1C1B"/>
<path id="Vector_3" d="M12.4473 8.21996C12.4243 8.40181 12.2888 8.81075 12.2211 8.72701C11.692 8.07612 10.8929 7.12349 10.3856 6.4554C10.3647 6.42027 10.353 6.38051 10.3515 6.33975C10.35 6.29898 10.3586 6.25848 10.3767 6.22188C10.4088 6.19017 10.4474 6.16581 10.4899 6.15047C10.5324 6.13513 10.5778 6.1292 10.6228 6.13309C11.0413 6.19936 11.4304 6.38779 11.7411 6.67446C12.2196 7.11032 12.5145 7.68655 12.4473 8.21996Z" fill="#1C1C1B"/>
</g>
<defs>
<clipPath id="clip0_187_510">
<rect width="18.4966" height="18" fill="white" transform="translate(0.503418)"/>
</clipPath>
</defs>
</svg>
